<svg width="24" height="24" viewBox="0 0 24 24" fill="none" xmlns="http://www.w3.org/2000/svg">
<path fill-rule="evenodd" clip-rule="evenodd" d="M10.147 5.2035C10.58 5.5435 10.829 6.0505 10.829 6.5945C10.829 10.9795 10.977 12.1595 11.582 12.6085C11.979 12.9015 12.523 12.8985 14.356 12.8475C15.208 12.8225 16.299 12.7905 17.728 12.7905C18.298 12.7905 18.835 13.0345 19.199 13.4595C19.537 13.8545 19.685 14.3705 19.607 14.8785C18.939 19.2035 15.259 22.3445 10.857 22.3445C5.973 22.3445 2 18.3715 2 13.4885C2 9.6165 4.928 5.7445 8.527 4.8585C9.089 4.7215 9.693 4.8495 10.147 5.2035ZM8.982 6.3035C8.95 6.3035 8.918 6.3075 8.886 6.3155C5.916 7.0465 3.5 10.2645 3.5 13.4885C3.5 17.5445 6.8 20.8445 10.857 20.8445C14.514 20.8445 17.57 18.2395 18.124 14.6495C18.128 14.6195 18.142 14.5325 18.06 14.4355C17.982 14.3445 17.858 14.2905 17.728 14.2905C16.317 14.2905 15.24 14.3225 14.399 14.3465C12.363 14.4075 11.521 14.4305 10.689 13.8135C9.49931 12.9321 9.34289 11.4504 9.32998 7.29254L9.329 6.5945C9.329 6.5105 9.293 6.4405 9.221 6.3845C9.154 6.3315 9.069 6.3035 8.982 6.3035ZM20.0504 3.7338C21.8084 5.4908 22.9244 7.7998 22.8924 9.6168C22.8804 10.3258 22.3654 10.9178 21.6694 11.0228C20.3114 11.2278 18.7214 11.2898 17.3144 11.2898C16.0044 11.2898 14.8514 11.2368 14.1884 11.1988C13.3544 11.1498 12.6904 10.4848 12.6424 9.6508C12.5644 8.3288 12.3954 4.9698 12.5154 2.3718C12.5484 1.6168 13.1584 1.0158 13.9044 1.0028C16.0414 0.940803 18.2464 1.9328 20.0504 3.7338ZM14.0324 2.5018H14.0104C13.9004 5.0208 14.0634 8.2748 14.1394 9.5638C14.1434 9.6408 14.1994 9.6968 14.2754 9.7008C15.3034 9.7598 18.8454 9.9238 21.3924 9.5488C21.3984 8.1448 20.4374 6.2408 18.9904 4.7948C17.5064 3.3128 15.7504 2.5018 14.0324 2.5018Z" fill="#8D8598"/>
</svg>
